<svg width="26" height="26" viewBox="0 0 26 26" fill="none" xmlns="http://www.w3.org/2000/svg">
<rect width="26" height="26" fill="white"/>
<path d="M8.90319 15.0061C8.90319 15.6935 8.33324 16.2508 7.63019 16.2508C6.92714 16.2508 6.35718 15.6935 6.35718 15.0061C6.35718 14.3187 6.92714 13.7614 7.63019 13.7614C8.33324 13.7614 8.90319 14.3187 8.90319 15.0061Z" fill="#1E1F20"/>
<path d="M13.1679 16.2508C13.871 16.2508 14.4409 15.6935 14.4409 15.0061C14.4409 14.3187 13.871 13.7614 13.1679 13.7614C12.4649 13.7614 11.8949 14.3187 11.8949 15.0061C11.8949 15.6935 12.4649 16.2508 13.1679 16.2508Z" fill="#1E1F20"/>
<path d="M19.9786 15.0061C19.9786 15.6935 19.4087 16.2508 18.7056 16.2508C18.0026 16.2508 17.4326 15.6935 17.4326 15.0061C17.4326 14.3187 18.0026 13.7614 18.7056 13.7614C19.4087 13.7614 19.9786 14.3187 19.9786 15.0061Z" fill="#1E1F20"/>
<path d="M7.63019 20.6422C8.33324 20.6422 8.90319 20.085 8.90319 19.3975C8.90319 18.7101 8.33324 18.1528 7.63019 18.1528C6.92714 18.1528 6.35718 18.7101 6.35718 19.3975C6.35718 20.085 6.92714 20.6422 7.63019 20.6422Z" fill="#1E1F20"/>
<path d="M14.4409 19.3975C14.4409 20.085 13.871 20.6422 13.1679 20.6422C12.4649 20.6422 11.8949 20.085 11.8949 19.3975C11.8949 18.7101 12.4649 18.1528 13.1679 18.1528C13.871 18.1528 14.4409 18.7101 14.4409 19.3975Z" fill="#1E1F20"/>
<path d="M18.7056 20.6422C19.4087 20.6422 19.9786 20.085 19.9786 19.3975C19.9786 18.7101 19.4087 18.1528 18.7056 18.1528C18.0026 18.1528 17.4326 18.7101 17.4326 19.3975C17.4326 20.085 18.0026 20.6422 18.7056 20.6422Z" fill="#1E1F20"/>
<path fill-rule="evenodd" clip-rule="evenodd" d="M16.9392 4.69095H9.39713V2.80903C9.39713 2.36222 9.02665 2 8.56967 2C8.11266 2 7.74222 2.36222 7.74222 2.80903V4.69095H5.37347C3.51036 4.69095 2 6.16771 2 7.98938V21.0372C2 22.8589 3.51036 24.3356 5.37347 24.3356H20.9622C22.8253 24.3356 24.3356 22.8589 24.3356 21.0372V7.98938C24.3356 6.16771 22.8253 4.69095 20.9622 4.69095H18.5941V2.80903C18.5941 2.36222 18.2237 2 17.7666 2C17.3097 2 16.9392 2.36222 16.9392 2.80903V4.69095ZM8.56967 8.80017C8.11266 8.80017 7.74222 8.43794 7.74222 7.99112V6.30905H5.37347C4.42435 6.30905 3.65491 7.06137 3.65491 7.98938V10.2966H22.6807V7.98938C22.6807 7.06137 21.9113 6.30905 20.9622 6.30905H18.5941V7.99112C18.5941 8.43794 18.2237 8.80017 17.7666 8.80017C17.3097 8.80017 16.9392 8.43794 16.9392 7.99112V6.30905H9.39713V7.99112C9.39713 8.43794 9.02665 8.80017 8.56967 8.80017ZM3.65491 11.9147V21.0372C3.65491 21.9653 4.42435 22.7175 5.37347 22.7175H20.9622C21.9113 22.7175 22.6807 21.9653 22.6807 21.0372V11.9147H3.65491Z" fill="#1E1F20"/>
</svg>
