<svg width="28" height="23" viewBox="0 0 28 23" fill="none" xmlns="http://www.w3.org/2000/svg">
<rect width="28" height="23" fill="white"/>
<path d="M8.87268 13.0588H13.9903C14.1864 13.0588 14.3498 12.9934 14.4806 12.8627C14.6113 12.732 14.6766 12.5686 14.6766 12.3725V5.76467C14.6766 5.57513 14.6113 5.415 14.4806 5.28427C14.3498 5.15355 14.1864 5.0882 13.9903 5.0882C13.8008 5.0882 13.6406 5.15355 13.5099 5.28427C13.3792 5.415 13.3138 5.57513 13.3138 5.76467V11.696H8.87268C8.6766 11.696 8.5132 11.7614 8.38248 11.8921C8.25176 12.0228 8.1864 12.1829 8.1864 12.3725C8.1864 12.5686 8.25176 12.732 8.38248 12.8627C8.5132 12.9934 8.6766 13.0588 8.87268 13.0588Z" fill="#1E1F20"/>
<path d="M14 22C15.366 22 16.652 21.7385 17.8578 21.2156C19.0637 20.6928 20.1274 19.9706 21.049 19.049C21.9706 18.1274 22.6928 17.0637 23.2156 15.8578C23.7385 14.652 24 13.366 24 12C24 10.634 23.7385 9.34803 23.2156 8.14215C22.6928 6.93627 21.9706 5.87255 21.049 4.95097C20.1274 4.02941 19.0621 3.30719 17.8529 2.78431C16.6438 2.26144 15.3562 2 13.9902 2C12.6242 2 11.3382 2.26144 10.1323 2.78431C8.92647 3.30719 7.86437 4.02941 6.94607 4.95097C6.02778 5.87255 5.30719 6.93627 4.78431 8.14215C4.26144 9.34803 4 10.634 4 12C4 13.366 4.26144 14.652 4.78431 15.8578C5.30719 17.0637 6.02941 18.1274 6.95097 19.049C7.87255 19.9706 8.93627 20.6928 10.1421 21.2156C11.348 21.7385 12.634 22 14 22ZM14 20.3333C12.8431 20.3333 11.7614 20.1176 10.7549 19.6863C9.74836 19.2549 8.86437 18.6585 8.10293 17.8971C7.3415 17.1356 6.74673 16.2517 6.31862 15.2451C5.89052 14.2386 5.67647 13.1569 5.67647 12C5.67647 10.8431 5.89052 9.76143 6.31862 8.7549C6.74673 7.74836 7.33987 6.86274 8.09803 6.09803C8.8562 5.33333 9.73855 4.73692 10.7451 4.30882C11.7516 3.88072 12.8333 3.66667 13.9902 3.66667C15.1471 3.66667 16.2288 3.88072 17.2353 4.30882C18.2418 4.73692 19.1274 5.33333 19.8922 6.09803C20.6569 6.86274 21.2549 7.74836 21.6863 8.7549C22.1176 9.76143 22.3333 10.8431 22.3333 12C22.3333 13.1569 22.1193 14.2386 21.6912 15.2451C21.263 16.2517 20.6683 17.1356 19.9068 17.8971C19.1454 18.6585 18.2598 19.2549 17.2499 19.6863C16.2402 20.1176 15.1569 20.3333 14 20.3333Z" fill="#1E1F20"/>
</svg>
