<svg width="28" height="23" viewBox="0 0 28 23" fill="none" xmlns="http://www.w3.org/2000/svg">
<path d="M14.0052 17C14.1364 17 14.2625 16.9744 14.3834 16.9233C14.5043 16.8722 14.6097 16.7989 14.6995 16.7035L22.7202 8.5951C22.9067 8.41105 23 8.19292 23 7.9407C23 7.76346 22.9585 7.60327 22.8756 7.46012C22.7927 7.31697 22.6805 7.2045 22.5388 7.1227C22.3972 7.0409 22.2366 7 22.057 7C21.8014 7 21.5769 7.08862 21.3835 7.26585L13.4456 15.272L14.5544 15.272L6.61658 7.26585C6.43006 7.08862 6.20553 7 5.943 7C5.76339 7 5.60276 7.0409 5.46114 7.1227C5.31952 7.2045 5.20725 7.31697 5.12435 7.46012C5.04145 7.60327 5 7.76346 5 7.9407C5 8.07021 5.02418 8.1912 5.07254 8.30368C5.1209 8.41616 5.18998 8.5167 5.27979 8.60531L13.3005 16.7035C13.5078 16.9012 13.7427 17 14.0052 17Z" fill="#1E1F20"/>
</svg>
