<svg width="28" height="28" viewBox="0 0 28 28" fill="none" xmlns="http://www.w3.org/2000/svg">
<path d="M25.5264 11.1914C25.7168 11.04 26 11.1816 26 11.4209V21.4062C26 22.7002 24.9502 23.75 23.6562 23.75H3.34375C2.0498 23.75 1 22.7002 1 21.4062V11.4258C1 11.1816 1.27832 11.0449 1.47363 11.1963C2.56738 12.0459 4.01758 13.125 8.99805 16.7432C10.0283 17.4951 11.7666 19.0771 13.5 19.0674C15.2432 19.082 17.0156 17.4658 18.0068 16.7432C22.9873 13.125 24.4326 12.041 25.5264 11.1914ZM13.5 17.5C14.6328 17.5195 16.2637 16.0742 17.084 15.4785C23.5635 10.7764 24.0566 10.3662 25.5508 9.19434C25.834 8.97461 26 8.63281 26 8.27148V7.34375C26 6.0498 24.9502 5 23.6562 5H3.34375C2.0498 5 1 6.0498 1 7.34375V8.27148C1 8.63281 1.16602 8.96973 1.44922 9.19434C2.94336 10.3613 3.43652 10.7764 9.91602 15.4785C10.7363 16.0742 12.3672 17.5195 13.5 17.5Z" fill="black"/>
</svg>
