<svg width="35" height="23" viewBox="0 0 35 23" fill="none" xmlns="http://www.w3.org/2000/svg">
<g clip-path="url(#clip0_20_110)">
<g clip-path="url(#clip1_20_110)">
<path d="M31.5897 0H2.87179C1.28575 0 0 1.28575 0 2.87179V20.1026C0 21.6886 1.28575 22.9744 2.87179 22.9744H31.5897C33.1758 22.9744 34.4615 21.6886 34.4615 20.1026V2.87179C34.4615 1.28575 33.1758 0 31.5897 0Z" fill="#016FD0"/>
<path fill-rule="evenodd" clip-rule="evenodd" d="M19.7638 19.2321V11.0455L34.3346 11.0586V13.32L32.6505 15.1197L34.3346 16.936V19.2453H31.6457L30.2167 17.6685L28.7979 19.2513L19.7638 19.2321Z" fill="#FFFFFE"/>
<path fill-rule="evenodd" clip-rule="evenodd" d="M20.7369 18.3346V11.9465H26.1536V13.4181H22.4907V14.417H26.0662V15.8642H22.4907V16.8453H26.1536V18.3346H20.7369Z" fill="#016FD0"/>
<path fill-rule="evenodd" clip-rule="evenodd" d="M26.1266 18.3347L29.1238 15.1369L26.1265 11.9467H28.4464L30.2778 13.9713L32.1145 11.9467H34.3347V11.9969L31.4013 15.1369L34.3347 18.244V18.3347H32.0922L30.2282 16.2897L28.3834 18.3347H26.1266Z" fill="#016FD0"/>
<path fill-rule="evenodd" clip-rule="evenodd" d="M20.4434 3.77924H23.9557L25.1893 6.58046V3.77924H29.5255L30.2733 5.8779L31.0235 3.77924H34.3346V11.9658H16.8361L20.4434 3.77924Z" fill="#FFFFFE"/>
<path fill-rule="evenodd" clip-rule="evenodd" d="M21.1083 4.6687L18.2738 11.0515H20.2179L20.7526 9.77332H23.6502L24.1846 11.0515H26.177L23.3543 4.6687H21.1083ZM21.3519 8.34092L22.2019 6.30902L23.0513 8.34092H21.3519Z" fill="#016FD0"/>
<path fill-rule="evenodd" clip-rule="evenodd" d="M26.1504 11.0503V4.6676L28.8831 4.677L30.2892 8.60091L31.7045 4.6676H34.3345V11.0503L32.6421 11.0653V6.68097L31.0446 11.0503H29.4998L27.8692 6.66599V11.0503H26.1504Z" fill="#016FD0"/>
</g>
</g>
<defs>
<clipPath id="clip0_20_110">
<rect width="34.46" height="22.97" rx="3" fill="white"/>
</clipPath>
<clipPath id="clip1_20_110">
<rect width="34.4615" height="22.9744" fill="white"/>
</clipPath>
</defs>
</svg>
