<svg width="28" height="28" viewBox="0 0 28 28" fill="none" xmlns="http://www.w3.org/2000/svg">
<path d="M13.9889 7.83889C10.5839 7.83889 7.83589 10.5869 7.83589 13.9919C7.83589 17.3969 10.5839 20.1449 13.9889 20.1449C17.3939 20.1449 20.1419 17.3969 20.1419 13.9919C20.1419 10.5869 17.3939 7.83889 13.9889 7.83889ZM13.9889 17.9909C11.7869 17.9909 9.98989 16.1939 9.98989 13.9919C9.98989 11.7899 11.7869 9.99289 13.9889 9.99289C16.1909 9.99289 17.9879 11.7899 17.9879 13.9919C17.9879 16.1939 16.1909 17.9909 13.9889 17.9909ZM20.3939 6.15289C19.5989 6.15289 18.9569 6.79489 18.9569 7.58989C18.9569 8.38489 19.5989 9.02689 20.3939 9.02689C21.1889 9.02689 21.8309 8.38789 21.8309 7.58989C21.8311 7.40112 21.7941 7.21415 21.722 7.0397C21.6499 6.86524 21.544 6.70674 21.4105 6.57325C21.277 6.43977 21.1185 6.33393 20.9441 6.26179C20.7696 6.18966 20.5827 6.15265 20.3939 6.15289ZM25.9829 13.9919C25.9829 12.3359 25.9979 10.6949 25.9049 9.04189C25.8119 7.12189 25.3739 5.41789 23.9699 4.01389C22.5629 2.60689 20.8619 2.17189 18.9419 2.07889C17.2859 1.98589 15.6449 2.00089 13.9919 2.00089C12.3359 2.00089 10.6949 1.98589 9.04189 2.07889C7.12189 2.17189 5.41789 2.60989 4.01389 4.01389C2.60689 5.42089 2.17189 7.12189 2.07889 9.04189C1.98589 10.6979 2.00089 12.3389 2.00089 13.9919C2.00089 15.6449 1.98589 17.2889 2.07889 18.9419C2.17189 20.8619 2.60989 22.5659 4.01389 23.9699C5.42089 25.3769 7.12189 25.8119 9.04189 25.9049C10.6979 25.9979 12.3389 25.9829 13.9919 25.9829C15.6479 25.9829 17.2889 25.9979 18.9419 25.9049C20.8619 25.8119 22.5659 25.3739 23.9699 23.9699C25.3769 22.5629 25.8119 20.8619 25.9049 18.9419C26.0009 17.2889 25.9829 15.6479 25.9829 13.9919ZM23.3429 21.0659C23.1239 21.6119 22.8599 22.0199 22.4369 22.4399C22.0139 22.8629 21.6089 23.1269 21.0629 23.3459C19.4849 23.9729 15.7379 23.8319 13.9889 23.8319C12.2399 23.8319 8.48989 23.9729 6.91189 23.3489C6.36589 23.1299 5.95789 22.8659 5.53789 22.4429C5.11489 22.0199 4.85089 21.6149 4.63189 21.0689C4.00789 19.4879 4.14889 15.7409 4.14889 13.9919C4.14889 12.2429 4.00789 8.49289 4.63189 6.91489C4.85089 6.36889 5.11489 5.96089 5.53789 5.54089C5.96089 5.12089 6.36589 4.85389 6.91189 4.63489C8.48989 4.01089 12.2399 4.15189 13.9889 4.15189C15.7379 4.15189 19.4879 4.01089 21.0659 4.63489C21.6119 4.85389 22.0199 5.11789 22.4399 5.54089C22.8629 5.96389 23.1269 6.36889 23.3459 6.91489C23.9699 8.49289 23.8289 12.2429 23.8289 13.9919C23.8289 15.7409 23.9699 19.4879 23.3429 21.0659Z" fill="black"/>
</svg>
