<svg width="35" height="23" viewBox="0 0 35 23" fill="none" xmlns="http://www.w3.org/2000/svg">
<g clip-path="url(#clip0_20_56)">
<g clip-path="url(#clip1_20_56)">
<path d="M31.5897 0H2.87179C1.28575 0 0 1.28575 0 2.87179V20.1026C0 21.6886 1.28575 22.9744 2.87179 22.9744H31.5897C33.1758 22.9744 34.4615 21.6886 34.4615 20.1026V2.87179C34.4615 1.28575 33.1758 0 31.5897 0Z" fill="#252525"/>
<path d="M12.923 18.6667C16.8881 18.6667 20.1025 15.4523 20.1025 11.4872C20.1025 7.52204 16.8881 4.30768 12.923 4.30768C8.9579 4.30768 5.74353 7.52204 5.74353 11.4872C5.74353 15.4523 8.9579 18.6667 12.923 18.6667Z" fill="#EB001B"/>
<path d="M21.5385 18.6667C25.5036 18.6667 28.718 15.4523 28.718 11.4872C28.718 7.52204 25.5036 4.30768 21.5385 4.30768C17.5734 4.30768 14.359 7.52204 14.359 11.4872C14.359 15.4523 17.5734 18.6667 21.5385 18.6667Z" fill="#F79E1B"/>
<path fill-rule="evenodd" clip-rule="evenodd" d="M17.2308 5.74304C18.9746 7.05288 20.1026 9.13829 20.1026 11.4872C20.1026 13.836 18.9746 15.9214 17.2308 17.2313C15.487 15.9214 14.359 13.836 14.359 11.4872C14.359 9.13829 15.487 7.05288 17.2308 5.74304V5.74304Z" fill="#FF5F00"/>
</g>
</g>
<defs>
<clipPath id="clip0_20_56">
<rect width="34.46" height="22.97" rx="3" fill="white"/>
</clipPath>
<clipPath id="clip1_20_56">
<rect width="34.4615" height="22.9744" fill="white"/>
</clipPath>
</defs>
</svg>
