<svg width="28" height="28" viewBox="0 0 28 28" fill="none" xmlns="http://www.w3.org/2000/svg">
<path d="M26.2866 19.6656L20.8179 17.3218C20.5843 17.2223 20.3246 17.2013 20.078 17.262C19.8315 17.3228 19.6113 17.462 19.4507 17.6587L17.0288 20.6177C13.2279 18.8256 10.169 15.7668 8.37695 11.9659L11.3359 9.54399C11.533 9.38368 11.6726 9.16351 11.7333 8.91682C11.7941 8.67013 11.7729 8.41035 11.6729 8.1768L9.3291 2.70805C9.21929 2.4563 9.02508 2.25075 8.77996 2.12685C8.53483 2.00295 8.25416 1.96847 7.98633 2.02934L2.9082 3.20122C2.64998 3.26085 2.4196 3.40624 2.25466 3.61366C2.08971 3.82109 1.99994 4.07829 2 4.34331C2 16.8677 12.1514 26.9996 24.6562 26.9996C24.9213 26.9997 25.1787 26.91 25.3862 26.7451C25.5937 26.5801 25.7392 26.3497 25.7988 26.0914L26.9707 21.0132C27.0312 20.7441 26.996 20.4623 26.8711 20.2163C26.7463 19.9704 26.5396 19.7756 26.2866 19.6656Z" fill="black"/>
</svg>
