<svg width="26" height="26" viewBox="0 0 26 26" fill="none" xmlns="http://www.w3.org/2000/svg">
<g clip-path="url(#clip0_37_25)">
<path d="M17.7029 9.64172C19.2486 10.7461 21.1423 11.396 23.1875 11.396V7.46244C22.8004 7.46252 22.4144 7.42213 22.0357 7.34194V10.4382C19.9907 10.4382 18.0972 9.78845 16.5511 8.68412V16.7114C16.5511 20.7271 13.2941 23.9821 9.27664 23.9821C7.77763 23.9821 6.38431 23.5292 5.22693 22.7523C6.54792 24.1024 8.39013 24.9398 10.4281 24.9398C14.4459 24.9398 17.703 21.6848 17.703 17.6689V9.64172H17.7029ZM19.1238 5.67328C18.3338 4.81068 17.8151 3.69593 17.7029 2.46348V1.95758H16.6114C16.8861 3.52395 17.8234 4.86216 19.1238 5.67328ZM7.76795 19.6709C7.32659 19.0925 7.08801 18.3849 7.08908 17.6574C7.08908 15.8208 8.57882 14.3316 10.4168 14.3316C10.7593 14.3315 11.0997 14.384 11.4262 14.4875V10.466C11.0447 10.4138 10.6597 10.3915 10.2749 10.3997V13.5298C9.94825 13.4263 9.60761 13.3737 9.26497 13.374C7.42707 13.374 5.93741 14.863 5.93741 16.6999C5.93741 17.9987 6.68199 19.1231 7.76795 19.6709Z" fill="#FF004F"/>
<path d="M16.5511 8.68404C18.0973 9.78837 19.9906 10.4381 22.0357 10.4381V7.34186C20.8942 7.09879 19.8836 6.5026 19.1238 5.67328C17.8232 4.86208 16.8862 3.52387 16.6114 1.95758H13.7444V17.6687C13.7379 19.5003 12.2507 20.9834 10.4167 20.9834C9.336 20.9834 8.37584 20.4685 7.76781 19.6708C6.68202 19.1231 5.93736 17.9986 5.93736 16.7C5.93736 14.8633 7.42701 13.3741 9.26491 13.3741C9.61705 13.3741 9.95644 13.4289 10.2748 13.5299V10.3998C6.32789 10.4813 3.15369 13.7046 3.15369 17.6688C3.15369 19.6477 3.94411 21.4417 5.22704 22.7525C6.38442 23.5292 7.77766 23.9823 9.27675 23.9823C13.2943 23.9823 16.5512 20.727 16.5512 16.7114L16.5511 8.68404Z" fill="black"/>
<path d="M22.0357 7.34179V6.50477C21.0063 6.50633 19.9972 6.21819 19.1238 5.6733C19.8969 6.51927 20.915 7.10265 22.0357 7.34196M16.6113 1.95752C16.5851 1.80786 16.565 1.6572 16.5511 1.5059V1H12.5924V16.7113C12.5861 18.5428 11.0989 20.0258 9.26485 20.0258C8.7449 20.0266 8.23205 19.905 7.76775 19.671C8.37577 20.4686 9.33594 20.9833 10.4166 20.9833C12.2505 20.9833 13.7379 19.5004 13.7443 17.6688V1.9576L16.6113 1.95752ZM10.275 10.3997V9.5085C9.94421 9.46328 9.61072 9.44066 9.27685 9.4408C5.25892 9.4408 2.00195 12.696 2.00195 16.7113C2.00195 19.2287 3.28198 21.4473 5.22714 22.7524C3.94422 21.4416 3.15379 19.6476 3.15379 17.6687C3.15379 13.7046 6.32791 10.4812 10.275 10.3997Z" fill="#00F2EA"/>
</g>
<defs>
<clipPath id="clip0_37_25">
<rect width="21.19" height="24" fill="white" transform="translate(2 1)"/>
</clipPath>
</defs>
</svg>
