<svg width="28" height="23" viewBox="0 0 28 23" fill="none" xmlns="http://www.w3.org/2000/svg">
<rect width="28" height="23" fill="white"/>
<path d="M7.52434 21H20.4757C22.1586 21 23 20.4816 23 19.4449C23 18.81 22.7939 18.1329 22.3818 17.4136C21.9697 16.6944 21.3739 16.0157 20.5942 15.3774C19.8146 14.7392 18.8701 14.2192 17.7607 13.8175C16.6514 13.4157 15.3996 13.2149 14.0052 13.2149C12.6039 13.2149 11.3486 13.4157 10.2393 13.8175C9.12995 14.2192 8.18547 14.7392 7.40584 15.3774C6.62622 16.0157 6.03034 16.6944 5.6182 17.4136C5.20607 18.1329 5 18.81 5 19.4449C5 20.4816 5.84145 21 7.52434 21ZM7.04007 19.5324C6.90269 19.5324 6.80481 19.513 6.74642 19.4741C6.68804 19.4352 6.65885 19.3639 6.65885 19.2603C6.65885 18.8651 6.81856 18.4066 7.13796 17.885C7.45736 17.3634 7.9296 16.8596 8.55467 16.3737C9.17975 15.8877 9.94907 15.4843 10.8626 15.1636C11.7762 14.8428 12.8237 14.6825 14.0052 14.6825C15.1866 14.6825 16.2324 14.8428 17.1426 15.1636C18.0527 15.4843 18.8203 15.8877 19.4454 16.3737C20.0705 16.8596 20.5427 17.3634 20.8621 17.885C21.1815 18.4066 21.3412 18.8651 21.3412 19.2603C21.3412 19.3639 21.312 19.4352 21.2537 19.4741C21.1953 19.513 21.1008 19.5324 20.9703 19.5324H7.04007ZM14.0052 12.0097C14.8226 12.0097 15.5679 11.8024 16.241 11.3877C16.9142 10.973 17.4516 10.4206 17.8535 9.73056C18.2553 9.0405 18.4562 8.27754 18.4562 7.44169C18.4562 6.61232 18.257 5.86231 17.8587 5.19168C17.4603 4.52106 16.9245 3.98812 16.2514 3.59287C15.5782 3.19762 14.8295 3 14.0052 3C13.1878 3 12.4425 3.20086 11.7693 3.60259C11.0962 4.00432 10.5587 4.54212 10.1569 5.21598C9.75503 5.88985 9.55411 6.63823 9.55411 7.46113C9.55411 8.2905 9.75503 9.05022 10.1569 9.74029C10.5587 10.4304 11.0962 10.9811 11.7693 11.3925C12.4425 11.804 13.1878 12.0097 14.0052 12.0097ZM14.0052 10.5421C13.5037 10.5421 13.0418 10.4044 12.6194 10.129C12.1969 9.85367 11.8569 9.48272 11.5993 9.0162C11.3417 8.54968 11.213 8.03132 11.213 7.46113C11.213 6.89741 11.34 6.39039 11.5942 5.94007C11.8483 5.48974 12.1866 5.13175 12.6091 4.8661C13.0315 4.60044 13.4969 4.46761 14.0052 4.46761C14.5204 4.46761 14.9892 4.5972 15.4116 4.85637C15.8341 5.11555 16.1706 5.4703 16.4213 5.92063C16.672 6.37095 16.7974 6.87797 16.7974 7.44169C16.7974 8.01188 16.6703 8.53186 16.4162 9.00162C16.162 9.47139 15.8237 9.84558 15.4013 10.1242C14.9788 10.4028 14.5135 10.5421 14.0052 10.5421Z" fill="#1E1F20"/>
</svg>
