<svg width="35" height="23" viewBox="0 0 35 23" fill="none" xmlns="http://www.w3.org/2000/svg">
<g clip-path="url(#clip0_20_126)">
<g clip-path="url(#clip1_20_126)">
<path d="M31.2308 0.358948H3.2308C1.64476 0.358948 0.359009 1.64469 0.359009 3.23074V19.7436C0.359009 21.3296 1.64476 22.6154 3.2308 22.6154H31.2308C32.8168 22.6154 34.1026 21.3296 34.1026 19.7436V3.23074C34.1026 1.64469 32.8168 0.358948 31.2308 0.358948Z" fill="white" stroke="black" stroke-opacity="0.2" stroke-width="0.717949"/>
<path d="M4.00291 8.49254C3.25174 8.08054 2.39443 7.74918 1.43591 7.51923L1.47612 7.34016H5.40614C5.93883 7.35883 6.37108 7.5191 6.51173 8.08514L7.36583 12.1572L7.62748 13.3836L10.0197 7.34016H12.6026L8.76313 16.1934H6.18007L4.00291 8.49254ZM14.5025 16.2028H12.0599L13.5877 7.34016H16.0302L14.5025 16.2028ZM23.3574 7.55682L23.0252 9.4706L22.8043 9.37649C22.3623 9.19729 21.7789 9.01822 20.9848 9.03714C20.0204 9.03714 19.5878 9.42348 19.5778 9.80068C19.5778 10.2156 20.101 10.489 20.9554 10.8945C22.3627 11.5262 23.0155 12.2993 23.0057 13.3082C22.986 15.1468 21.3174 16.3349 18.7543 16.3349C17.6585 16.3253 16.603 16.1081 16.0301 15.8632L16.3719 13.8737L16.6936 14.0153C17.4877 14.3457 18.0102 14.4868 18.9854 14.4868C19.6887 14.4868 20.4427 14.2131 20.4523 13.6193C20.4523 13.2327 20.1311 12.9497 19.1861 12.516C18.2615 12.0915 17.0252 11.3845 17.0453 10.1116C17.0557 8.38627 18.7543 7.1795 21.1666 7.1795C22.1115 7.1795 22.8756 7.3775 23.3574 7.55682ZM26.604 13.0631H28.6343C28.5338 12.62 28.0713 10.4985 28.0713 10.4985L27.9006 9.73489C27.78 10.0648 27.569 10.6023 27.5792 10.5834C27.5792 10.5834 26.8051 12.5539 26.604 13.0631ZM29.6191 7.34016L31.5898 16.2027H29.3281C29.3281 16.2027 29.1067 15.1844 29.0366 14.8732H25.9004C25.8097 15.1088 25.3878 16.2027 25.3878 16.2027H22.8248L26.453 8.07549C26.7044 7.50031 27.1471 7.34016 27.7297 7.34016H29.6191Z" fill="#1434CB"/>
</g>
</g>
<defs>
<clipPath id="clip0_20_126">
<rect width="34.46" height="22.97" rx="3" fill="white"/>
</clipPath>
<clipPath id="clip1_20_126">
<rect width="34.4615" height="22.9744" fill="white"/>
</clipPath>
</defs>
</svg>
