<svg width="128" height="128" viewBox="0 0 128 128" fill="none" xmlns="http://www.w3.org/2000/svg">
<g clip-path="url(#clip0_1_2)">
<path d="M118.842 61.0572C118.684 62.1826 118.88 63.3353 118.936 64.4759C119.035 66.4776 119.182 68.4778 119.224 70.4764C119.351 76.4982 119.005 82.7782 116.226 88.1591C116.002 88.5935 115.765 89.0248 115.514 89.4516C115.312 89.7963 115.071 90.1122 114.81 90.4069C112.476 93.0388 110.387 95.9472 108.466 99.0181C105.332 104.031 103.031 110.904 98.7819 114.9C95.4307 118.051 90.8268 119.188 86.6498 120.452C82.733 121.637 79.7439 124.146 76.1452 126.044C72.6838 127.87 68.5691 128.292 64.7767 127.824C61.5966 127.432 58.5325 127.709 55.3652 126.884C52.3986 126.111 49.3514 124.852 46.5531 123.93C39.848 121.72 32.1587 122.615 26.3683 117.855C21.7672 114.075 18.6804 108.538 13.7894 105.107C11.6628 103.615 9.50503 102.08 7.9157 99.9552C3.82783 94.4923 6.92731 86.8014 4.97176 80.5518C4.73986 79.8076 4.47262 79.0664 4.16719 78.3283C3.94519 77.7482 3.70482 77.1771 3.44747 76.6137C-0.49758 67.9599 -1.10277 57.5656 1.86945 48.4608C2.02075 47.9991 2.21871 47.5526 2.46616 47.1425C4.18557 44.2919 6.53281 41.8254 7.7446 38.6649C8.92105 35.6001 9.02851 32.2103 9.9363 29.0605C11.0307 25.2636 13.2988 21.3392 16.3954 19.093C20.028 16.461 24.3011 15.0364 27.9421 12.1463C33.1343 8.02593 38.1526 2.87588 44.4237 0.704088C50.7626 -1.49353 56.56 2.13322 62.8622 2.3747C63.4645 2.39748 64.0669 2.40052 64.6777 2.40052C64.7004 2.40052 64.7216 2.40052 64.7442 2.40052C67.7588 2.39596 70.3083 4.83202 70.6222 8.05326C70.7014 8.85819 70.8823 9.63427 71.209 10.3314C72.0192 12.0627 71.9909 14.113 71.2005 15.855C69.696 19.1704 68.2099 24.4101 70.5741 29.3688C72.7616 33.9599 76.8013 35.5075 79.8867 35.9889C82.2636 36.3595 84.1697 38.2397 84.7904 40.7304C85.5667 43.8499 87.1164 47.6452 90.1622 49.0683C93.5374 50.6448 98.345 49.5953 101.577 48.5413C103.544 47.9004 105.694 48.3727 107.222 49.8474C108.903 51.4679 111.523 53.2069 114.95 53.0671C114.95 53.0671 120.016 52.6677 118.839 61.0587L118.842 61.0572Z" fill="#F7B658"/>
<path d="M21.7672 34.0115C23.3141 29.7408 28.6152 27.6055 32.8133 31.1639C37.0101 34.7223 34.1241 43.5082 25.7052 42.7898C20.1425 42.316 20.2217 38.2822 21.7686 34.01L21.7672 34.0115ZM58.6994 8.82782C55.5886 7.80419 52.8044 10.5744 53.165 14.0098C53.4563 16.7845 55.6904 19.1082 58.1875 19.6534C61.4779 20.3717 64.3129 21.0931 64.4048 16.2939C64.3596 15.7487 64.2691 15.2217 64.1348 14.719C63.4405 12.1068 61.1102 9.62515 58.6979 8.82933L58.6994 8.82782ZM48.6656 55.4895C47.9063 55.6611 47.2375 55.2754 46.4768 55.403C45.5167 55.5639 44.5792 56.0864 43.8467 56.7607C37.6167 62.4955 50.2465 70.3838 55.3807 64.886C58.3077 61.7513 58.2087 55.5609 53.6924 54.2138C52.7365 53.9283 51.6803 53.9161 50.7371 54.2654C50.0231 54.5297 49.4971 55.248 48.7759 55.4607C48.7392 55.4713 48.7024 55.4804 48.6671 55.4895H48.6656ZM73.6495 38.8259C73.2465 38.6239 72.9072 38.2443 72.6569 37.5244C72.203 36.2198 72.6032 35.3009 71.4663 34.4049C67.5679 31.3325 65.2688 37.3497 65.4469 40.454C65.6506 43.9912 67.493 48.1358 71.0011 48.9453C73.214 49.4556 75.762 48.6734 77.3104 46.8722C78.4062 45.5965 79.1259 43.5872 78.6452 41.8786C77.7614 38.7409 75.7055 39.8587 73.6495 38.8275V38.8259ZM28.536 74.3644C25.2994 71.0991 19.6547 69.8872 16.8309 74.738C15.7012 76.5575 15.7012 78.9829 16.2668 80.8023C18.5249 86.2592 24.7352 83.2278 29.1709 83.8413C29.5951 83.656 29.909 83.3098 30.1282 82.8511C30.3473 82.394 30.4718 81.8244 30.5184 81.2002C30.5651 80.576 30.5326 79.8926 30.4364 79.2077C29.8157 77.7694 29.8157 76.5575 29.2303 75.5004C29.004 75.06 28.7679 74.6727 28.536 74.3644ZM44.8676 93.3927C41.672 94.7474 38.8497 98.9923 41.1078 102.63C43.366 105.055 47.8823 102.63 49.8067 106.051C50.0768 106.63 50.3723 106.937 50.6749 107.052C51.2801 107.282 51.9136 106.747 52.4099 106.038C52.6574 105.682 52.8723 105.284 53.0306 104.915C56.3507 99.5982 52.9642 90.5025 46.2152 92.8171C45.7514 92.9538 45.2975 93.1482 44.8676 93.3927ZM82.5506 79.6071C84.0862 75.8786 83.7992 70.2198 79.3691 69.1369C77.5649 68.695 75.3576 69.4528 75.014 71.6398C74.2986 76.1945 65.6958 71.4469 66.6036 77.9365C67.2696 82.6977 71.8891 84.8285 76.0774 84.2651C78.8431 83.893 81.4209 82.3469 82.5492 79.6071H82.5506ZM106.374 62.7233C103.281 60.5879 95.7701 63.9367 97.317 68.7876C98.8639 73.6384 104.828 76.0107 108.363 73.4015C111.898 70.7908 112.508 67.6121 110.74 65.0029C108.973 62.3922 106.375 62.7248 106.375 62.7248L106.374 62.7233ZM89.1809 104.771C89.6574 102.63 91.9155 98.9923 89.6574 98.3848C87.3992 97.7788 84.0113 97.7788 82.1618 99.9536C81.8521 100.183 81.5566 100.434 81.2752 100.708C80.9952 100.983 80.7294 101.281 80.4834 101.606C79.4087 103.021 78.344 104.908 78.6947 106.805C78.9478 108.175 79.8527 109.385 81.0447 109.944C83.0144 110.869 85.2485 109.989 86.8393 108.545C87.1574 108.257 87.4501 107.944 87.7075 107.62C88.0695 107.165 88.3678 106.685 88.611 106.202C88.8542 105.72 89.0381 105.24 89.1823 104.771H89.1809Z" fill="#593412"/>
<path d="M110.684 43.9714C110.896 44.9556 110.527 46.412 109.344 46.2541C107.677 46.0308 104.176 47.2853 103.834 45.0148C103.493 42.7534 106.686 41.259 108.855 41.9515C109.736 42.2325 110.447 42.8749 110.685 43.9729L110.684 43.9714ZM125.719 50.4428C124.692 49.4009 123.711 48.883 122.698 50.587C121.799 52.1012 123.482 53.7202 123.114 55.2192C122.746 56.7182 122.462 57.637 124.343 58C125.769 58.2764 127.469 56.9825 127.882 55.5488C128.367 53.8599 127.267 52.1559 126.233 50.9986C126.059 50.8042 125.887 50.6159 125.717 50.4428H125.719ZM123.692 43.6373C121.807 43.6373 120.959 45.5342 122.444 46.1675C123.928 46.7993 127.108 44.2706 123.692 43.6373ZM87.2013 3.60032C85.5709 2.5858 83.9505 3.77042 84.9389 5.11602C85.9273 6.46314 89.861 5.98626 87.2013 3.60032ZM115.955 46.7462C114.87 46.7067 112.983 47.5754 115.415 49.0956C116.241 49.612 118.192 51.7565 118.357 49.5103C118.469 47.9976 117.317 46.7963 115.955 46.7462ZM114.763 38.2594C113.838 39.2497 113.068 40.7897 113.98 41.2043C115.283 41.7951 118.363 41.3334 117.91 39.2269C117.752 38.4903 116.899 37.7324 116.265 37.4302C115.927 37.2692 115.317 37.6656 114.761 38.2594H114.763ZM74.57 1.44067C73.0076 0.974422 72.2285 3.37555 73.3088 4.53586C74.3891 5.69618 73.1292 6.8489 75.4708 7.6265C77.8123 8.40561 77.8123 2.40659 74.57 1.43916V1.44067ZM76.5892 12.4637C75.8214 12.5062 75.328 13.3445 75.4934 14.1176C75.6928 15.0455 76.3983 15.0865 77.0954 15.3493C77.5324 15.5133 78.0485 16.7268 78.6056 16.1831C78.747 16.0464 78.8007 15.8292 78.7922 15.6242C78.7399 14.3439 78.0386 12.3817 76.5878 12.4637H76.5892Z" fill="#F7B658"/>
</g>
<defs>
<clipPath id="clip0_1_2">
<rect width="128" height="128" fill="white"/>
</clipPath>
</defs>
</svg>
